HIERARCHY
ROOT Hips
{
  OFFSET 54.3659 94.1344 17.6569
  CHANNELS 6 Xposition Yposition Zposition Zrotation Xrotation Yrotation
  JOINT spine
  {
    OFFSET 0 7.80059 0.448573
    CHANNELS 3 Zrotation Xrotation Yrotation
    JOINT spine1
    {
      OFFSET 0 10.1364 0
      CHANNELS 3 Zrotation Xrotation Yrotation
      JOINT spine2
      {
        OFFSET 0 9.71251 0
        CHANNELS 3 Zrotation Xrotation Yrotation
        JOINT Neck
        {
          OFFSET 0 24.9361 1.18887
          CHANNELS 3 Zrotation Xrotation Yrotation
          JOINT Head
          {
            OFFSET 0 7.53384 0
            CHANNELS 3 Zrotation Xrotation Yrotation
            End Site
            {
              OFFSET 0 18.2361 -6.01402
            }
          }
        }
        JOINT RightShoulder
        {
          OFFSET -4.08965 10.4888 -0.569457
          CHANNELS 3 Zrotation Xrotation Yrotation
          JOINT RightArm
          {
            OFFSET 0 13.757 0
            CHANNELS 3 Zrotation Xrotation Yrotation
            JOINT RightArmRoll
            {
              OFFSET 0 6.94478 0
              CHANNELS 3 Zrotation Xrotation Yrotation
              JOINT RightForeArm
              {
                OFFSET 0 20.2277 0
                CHANNELS 3 Zrotation Xrotation Yrotation
                JOINT RightForeArmRoll
                {
                  OFFSET 0 7.79312 0
                  CHANNELS 3 Zrotation Xrotation Yrotation
                  JOINT RightHand
                  {
                    OFFSET 0 15.6391 0
                    CHANNELS 3 Zrotation Xrotation Yrotation
                    End Site
                    {
                      OFFSET 0 0 0
                    }
                  }
                }
              }
            }
          }
        }
        JOINT LeftShoulder
        {
          OFFSET 4.08965 10.4888 -0.569457
          CHANNELS 3 Zrotation Xrotation Yrotation
          JOINT LeftArm
          {
            OFFSET 0 13.757 0
            CHANNELS 3 Zrotation Xrotation Yrotation
            JOINT LeftArmRoll
            {
              OFFSET 0 6.94478 0
              CHANNELS 3 Zrotation Xrotation Yrotation
              JOINT LeftForeArm
              {
                OFFSET 0 20.2277 0
                CHANNELS 3 Zrotation Xrotation Yrotation
                JOINT LeftForeArmRoll
                {
                  OFFSET 0 7.79312 0
                  CHANNELS 3 Zrotation Xrotation Yrotation
                  JOINT LeftHand
                  {
                    OFFSET 0 15.6391 0
                    CHANNELS 3 Zrotation Xrotation Yrotation
                    End Site
                    {
                      OFFSET 0 0 0
                    }
                  }
                }
              }
            }
          }
        }
      }
    }
  }
  JOINT RightUpLeg
  {
    OFFSET -6.91416 -1.26788 -1.06358
    CHANNELS 3 Zrotation Xrotation Yrotation
    JOINT RightUpLegRoll
    {
      OFFSET 0 18.3378 0
      CHANNELS 3 Zrotation Xrotation Yrotation
      JOINT RightLeg
      {
        OFFSET 0 -22.7085 0
        CHANNELS 3 Zrotation Xrotation Yrotation
        JOINT RightLegRoll
        {
          OFFSET 0 22.7828 0
          CHANNELS 3 Zrotation Xrotation Yrotation
          JOINT RightFoot
          {
            OFFSET 0 18.9629 0
            CHANNELS 3 Zrotation Xrotation Yrotation
            JOINT RightToeBase
            {
              OFFSET 0 15.852 0
              CHANNELS 3 Zrotation Xrotation Yrotation
              End Site
              {
                OFFSET 0.00671906 7.67701 -0.884892
              }
            }
          }
        }
      }
    }
  }
  JOINT LeftUpLeg
  {
    OFFSET 6.91416 -1.26788 -1.06358
    CHANNELS 3 Zrotation Xrotation Yrotation
    JOINT LeftUpLegRoll
    {
      OFFSET 0 18.3379 0
      CHANNELS 3 Zrotation Xrotation Yrotation
      JOINT LeftLeg
      {
        OFFSET 0 22.7084 0
        CHANNELS 3 Zrotation Xrotation Yrotation
        JOINT LeftLegRoll
        {
          OFFSET 0 22.9934 0
          CHANNELS 3 Zrotation Xrotation Yrotation
          JOINT LeftFoot
          {
            OFFSET 0 18.7522 0
            CHANNELS 3 Zrotation Xrotation Yrotation
            JOINT LeftToeBase
            {
              OFFSET 0 15.852 0
              CHANNELS 3 Zrotation Xrotation Yrotation
              End Site
              {
                OFFSET -0.030112 7.67701 -0.884893
              }
            }
          }
        }
      }
    }
  }
}
MOTION
Frames: 4
Frame Time: 0.00208333
54.7541 94.071 17.2565 0.698514 -7.92518 -0.758888 -0.32251 -1.32791 0.329482 -0.640167 1.34502 0.692973 -0.648951 2.98999 0.704086 4.20339 15.4534 -1.1989 5.82835 -11.1215 1.16138 75.6963 -3.77884 -3.57809 119.128 32.9315 -79.3121 6.60335e-006 -4.29124e-007 1.06841e-006 -145.888 72.3246 126.387 2.39376e-007 -2.96509e-006 -2.99999 8.02892 -4.9514 0.697649 -67.2431 2.93203 -0.49003 -112.38 28.1193 26.3028 -2.01742e-005 1.09624e-006 -1.30255e-008 174.358 72.5786 -162.864 6.04757e-006 -3.82774e-006 3 -8.02965 -4.95141 -0.697655 173.714 -1.93359 1.3432 180 7.01575e-015 179.051 -179.148 13.5042 178.87 -2.45166e-006 -6.74663e-007 0.0821096 -16.5593 70.6747 21.6873 8.13654 25.2334 -3.48678 -179.565 -3.93985 6.30085 4.54188e-006 -4.6773e-006 -1.44185 -4.56151 -11.3985 -0.210517 -1.81564e-007 -4.47947e-006 -0.236198 23.8523 71.4518 -23.1386 -8.13649 25.2327 3.48774 
54.7468 94.0674 17.218 0.705266 -7.905 -0.747069 -0.320685 -1.33232 0.329585 -0.636793 1.33621 0.693201 -0.645575 2.98119 0.704255 4.15904 15.4814 -1.20098 5.85455 -11.1923 1.15563 75.6796 -3.78316 -3.57879 119.022 32.8569 -79.1492 6.60335e-006 -4.29124e-007 1.06841e-006 -145.918 72.2451 126.331 2.39376e-007 -2.96509e-006 -2.99999 8.02892 -4.9514 0.697649 -67.2392 2.90929 -0.478959 -112.345 28.1297 26.1829 -2.01742e-005 1.09624e-006 -1.30255e-008 174.374 72.6054 -162.917 6.04757e-006 -3.82774e-006 3 -8.02965 -4.95141 -0.697655 173.708 -1.90727 1.34626 180 7.01575e-015 179.051 -179.151 13.5169 178.87 -2.45166e-006 -6.74663e-007 0.0825047 -16.5672 70.6808 21.6938 8.13654 25.2334 -3.48678 -179.571 -3.91713 6.30642 4.54188e-006 -4.6773e-006 -1.44146 -4.55986 -11.3973 -0.209749 -1.81564e-007 -4.47947e-006 -0.236293 23.8471 71.4485 -23.1344 -8.13649 25.2327 3.48774 
54.7495 94.0647 17.2195 0.711419 -7.88301 -0.736869 -0.31902 -1.33854 0.329578 -0.633794 1.32377 0.693155 -0.642572 2.96875 0.704157 4.12766 15.5459 -1.20452 5.8669 -11.2938 1.15223 75.6773 -3.78723 -3.58035 118.923 32.7963 -78.9945 6.60335e-006 -4.29124e-007 1.06841e-006 -145.941 72.1793 126.279 2.39376e-007 -2.96509e-006 -2.99999 8.02892 -4.9514 0.697649 -67.2379 2.89573 -0.47222 -112.31 28.134 26.022 -2.01742e-005 1.09624e-006 -1.30255e-008 174.408 72.6318 -163.001 6.04757e-006 -3.82774e-006 3 -8.02965 -4.95141 -0.697655 173.703 -1.87881 1.34854 180 7.01575e-015 179.051 -179.153 13.5293 178.87 -2.45166e-006 -6.74663e-007 0.0828572 -16.575 70.6863 21.7 8.13654 25.2334 -3.48678 -179.576 -3.89396 6.31132 4.54188e-006 -4.6773e-006 -1.44108 -4.55854 -11.3948 -0.208956 -1.81564e-007 -4.47947e-006 -0.236424 23.8423 71.4455 -23.1306 -8.13649 25.2327 3.48774 
54.719 94.0695 17.2362 0.71774 -7.8578 -0.727755 -0.317473 -1.3468 0.329447 -0.631122 1.30727 0.692822 -0.639891 2.95224 0.703776 4.10486 15.6472 -1.20884 5.86902 -11.43 1.15149 75.6864 -3.79136 -3.58271 118.824 32.7462 -78.8451 6.60335e-006 -4.29124e-007 1.06841e-006 -145.951 72.1235 126.223 2.39376e-007 -2.96509e-006 -2.99999 8.02892 -4.9514 0.697649 -67.2388 2.88879 -0.468586 -112.274 28.133 25.8269 -2.01742e-005 1.09624e-006 -1.30255e-008 174.458 72.6599 -163.111 6.04757e-006 -3.82774e-006 3 -8.02965 -4.95141 -0.697655 173.697 -1.8462 1.35049 180 7.01575e-015 179.052 -179.156 13.5423 178.87 -2.45166e-006 -6.74663e-007 0.0831847 -16.5829 70.6915 21.7062 8.13654 25.2334 -3.48678 -179.581 -3.86923 6.31617 4.54188e-006 -4.6773e-006 -1.44069 -4.55747 -11.3903 -0.208061 -1.81564e-007 -4.47947e-006 -0.236594 23.8374 71.4423 -23.1265 -8.13649 25.2327 3.48774 
